<?xml version="1.0" encoding="UTF-8"?>
<!DOCTYPE svg PUBLIC "-//W3C//DTD SVG 1.1//EN" "http://www.w3.org/Graphics/SVG/1.1/DTD/svg11.dtd">
<svg xmlns="http://www.w3.org/2000/svg" version="1.1" width="512px" height="512px" style="shape-rendering:geometricPrecision; text-rendering:geometricPrecision; image-rendering:optimizeQuality; fill-rule:evenodd; clip-rule:evenodd" xmlns:xlink="http://www.w3.org/1999/xlink">
<g><path style="opacity:0.993" fill="#000000" d="M 237.5,20.5 C 333.118,17.3848 406.618,55.7181 458,135.5C 495.713,203.12 500.713,273.12 473,345.5C 441.895,415.808 389.395,461.641 315.5,483C 223.017,503.5 144.184,479.667 79,411.5C 25.3888,346.806 8.72216,273.472 29,191.5C 50.8553,119.311 96.3553,68.1445 165.5,38C 188.793,28.6757 212.793,22.8424 237.5,20.5 Z M 252.5,106.5 C 264.943,106.624 272.776,112.624 276,124.5C 276.333,165.5 276.667,206.5 277,247.5C 296.333,266.833 315.667,286.167 335,305.5C 343.833,319.667 341,330.834 326.5,339C 318.826,341.333 311.826,340 305.5,335C 283.667,313.167 261.833,291.333 240,269.5C 238.414,267.33 237.08,264.996 236,262.5C 234.354,216.546 234.02,170.546 235,124.5C 237.014,114.654 242.847,108.654 252.5,106.5 Z"/></g>
</svg>
