<?xml version="1.0" encoding="UTF-8"?>
<!DOCTYPE svg PUBLIC "-//W3C//DTD SVG 1.1//EN" "http://www.w3.org/Graphics/SVG/1.1/DTD/svg11.dtd">
<svg xmlns="http://www.w3.org/2000/svg" version="1.1" width="512px" height="512px" style="shape-rendering:geometricPrecision; text-rendering:geometricPrecision; image-rendering:optimizeQuality; fill-rule:evenodd; clip-rule:evenodd" xmlns:xlink="http://www.w3.org/1999/xlink">
<g><path style="opacity:0.994" fill="#ffb643" d="M 249.5,70.5 C 257.699,69.1001 264.865,71.1001 271,76.5C 297.248,115.328 323.248,154.328 349,193.5C 358.467,203.948 368.967,205.114 380.5,197C 411.668,172.924 443.334,149.59 475.5,127C 483.243,125.582 489.41,128.082 494,134.5C 495.563,139.718 495.896,145.051 495,150.5C 485.545,212.187 476.045,273.854 466.5,335.5C 325.833,335.5 185.167,335.5 44.5,335.5C 34.9551,273.854 25.4551,212.187 16,150.5C 12.6406,136.733 17.8073,128.733 31.5,126.5C 34.6979,126.622 37.6979,127.455 40.5,129C 72.5514,153.385 104.885,177.385 137.5,201C 147.262,203.746 155.429,201.246 162,193.5C 188.108,153.727 214.608,114.227 241.5,75C 244.099,73.205 246.766,71.705 249.5,70.5 Z"/></g>
<g><path style="opacity:0.987" fill="#ffb743" d="M 44.5,369.5 C 185.167,369.5 325.833,369.5 466.5,369.5C 466.667,387.503 466.5,405.503 466,423.5C 464.432,430.737 460.266,435.904 453.5,439C 387.557,440.162 321.557,440.662 255.5,440.5C 189.443,440.662 123.443,440.162 57.5,439C 50.7342,435.904 46.5676,430.737 45,423.5C 44.5001,405.503 44.3334,387.503 44.5,369.5 Z"/></g>
</svg>
