<?xml version="1.0" encoding="UTF-8"?>
<!DOCTYPE svg PUBLIC "-//W3C//DTD SVG 1.1//EN" "http://www.w3.org/Graphics/SVG/1.1/DTD/svg11.dtd">
<svg xmlns="http://www.w3.org/2000/svg" version="1.1" width="512px" height="512px" style="shape-rendering:geometricPrecision; text-rendering:geometricPrecision; image-rendering:optimizeQuality; fill-rule:evenodd; clip-rule:evenodd" xmlns:xlink="http://www.w3.org/1999/xlink">
<g><path style="opacity:0.998" fill="#4bae4f" d="M 232.5,-0.5 C 247.833,-0.5 263.167,-0.5 278.5,-0.5C 378.271,12.4486 449.438,64.4486 492,155.5C 502.136,180.379 508.636,206.046 511.5,232.5C 511.5,247.833 511.5,263.167 511.5,278.5C 498.551,378.271 446.551,449.438 355.5,492C 330.622,502.136 304.955,508.636 278.5,511.5C 263.167,511.5 247.833,511.5 232.5,511.5C 132.727,498.549 61.5605,446.549 19,355.5C 8.86392,330.621 2.36392,304.954 -0.5,278.5C -0.5,263.167 -0.5,247.833 -0.5,232.5C 12.4486,132.729 64.4486,61.5622 155.5,19C 180.379,8.86392 206.046,2.36392 232.5,-0.5 Z"/></g>
<g><path style="opacity:1" fill="#fefefe" d="M 355.5,135.5 C 358.794,135.259 361.794,136.092 364.5,138C 377.667,151.167 390.833,164.333 404,177.5C 406.086,181.667 405.753,185.667 403,189.5C 341.473,251.361 279.639,312.861 217.5,374C 214.167,376 210.833,376 207.5,374C 173.639,340.472 140.139,306.639 107,272.5C 105,269.167 105,265.833 107,262.5C 120.5,249 134,235.5 147.5,222C 150.833,220 154.167,220 157.5,222C 175.5,240 193.5,258 211.5,276C 212.5,276.667 213.5,276.667 214.5,276C 261.395,228.938 308.395,182.105 355.5,135.5 Z"/></g>
</svg>
