<?xml version="1.0" encoding="utf-8"?>
<svg width="319px" height="319px" viewBox="0 0 319 319" version="1.1" xmlns:xlink="http://www.w3.org/1999/xlink" xmlns="http://www.w3.org/2000/svg">
  <defs>
    <path d="M319 0L319 0L319 319L0 319L0 0L319 0Z" id="path_1" />
    <path d="M249 0L249 0L249 270L0 270L0 0L249 0Z" id="path_2" />
    <clipPath id="clip_1">
      <use xlink:href="#path_1" clip-rule="evenodd" fill-rule="evenodd" />
    </clipPath>
    <clipPath id="clip_2">
      <use xlink:href="#path_2" clip-rule="evenodd" fill-rule="evenodd" />
    </clipPath>
  </defs>
  <g id="Frame 5">
    <path d="M319 0L319 0L319 319L0 319L0 0L319 0Z" id="Frame-5" fill="none" stroke="none" />
    <g id="animal" clip-path="url(#clip_1)">
      <path d="M249 0L249 0L249 270L0 270L0 0L249 0Z" id="animal" fill="none" stroke="none" transform="translate(35 24)" />
      <path d="M19.2086 -0.243405C19.5328 -0.243405 19.857 -0.243405 20.1812 -0.243405C16.145 7.82915 15.0915 16.2612 17.0203 25.0527C19.129 31.3777 23.4247 35.3506 29.9071 36.9711C37.7368 38.8086 45.6795 39.7816 53.7352 39.8898C44.051 46.1715 36.5944 54.4413 31.3661 64.6988C27.941 64.5924 24.5369 64.1871 21.1538 63.4831C22.1919 57.8393 24.5423 52.8127 28.2051 48.4029C28.5847 47.7006 28.5037 47.052 27.962 46.4571C26.1591 48.1811 24.6192 50.1269 23.3422 52.2945C21.794 55.715 20.2541 59.1202 18.7223 62.5103C11.5363 60.423 6.18697 56.1255 2.67449 49.6191C6.01492 44.899 10.0674 40.9261 14.8319 37.7007C14.2372 37.1588 13.5887 37.0778 12.8867 37.4575C8.62697 40.1778 4.89872 43.5021 1.70189 47.43C0.844852 45.6642 0.196456 43.8806 -0.243297 42.0789C-0.243297 37.5386 -0.243297 32.9982 -0.243297 28.4579C0.230839 27.0903 0.55504 25.631 0.729298 24.0798C4.39109 23.0553 8.11936 22.4066 11.9142 22.1339C12.0858 21.0954 11.6806 20.4468 10.6984 20.1881C7.67214 20.7447 4.67326 21.3934 1.70189 22.1339C4.2772 12.1143 10.1128 4.6552 19.2086 -0.243405L19.2086 -0.243405Z" id="Group" fill="#C71717" fill-opacity="0.942" fill-rule="evenodd" stroke="none" clip-path="url(#clip_2)" transform="translate(35 24)" />
      <path d="M19.2086 -0.243405C19.5328 -0.243405 19.857 -0.243405 20.1812 -0.243405C16.145 7.82915 15.0915 16.2612 17.0203 25.0527C19.129 31.3777 23.4247 35.3506 29.9071 36.9711C37.7368 38.8086 45.6795 39.7816 53.7352 39.8898C44.051 46.1715 36.5944 54.4413 31.3661 64.6988C27.941 64.5924 24.5369 64.1871 21.1538 63.4831C22.1919 57.8393 24.5423 52.8127 28.2051 48.4029C28.5847 47.7006 28.5037 47.052 27.962 46.4571C26.1591 48.1811 24.6192 50.1269 23.3422 52.2945C21.794 55.715 20.2541 59.1202 18.7223 62.5103C11.5363 60.423 6.18697 56.1255 2.67449 49.6191C6.01492 44.899 10.0674 40.9261 14.8319 37.7007C14.2372 37.1588 13.5887 37.0778 12.8867 37.4575C8.62697 40.1778 4.89872 43.5021 1.70189 47.43C0.844852 45.6642 0.196456 43.8806 -0.243297 42.0789C-0.243297 37.5386 -0.243297 32.9982 -0.243297 28.4579C0.230839 27.0903 0.55504 25.631 0.729298 24.0798C4.39109 23.0553 8.11936 22.4066 11.9142 22.1339C12.0858 21.0954 11.6806 20.4468 10.6984 20.1881C7.67214 20.7447 4.67326 21.3934 1.70189 22.1339C4.2772 12.1143 10.1128 4.6552 19.2086 -0.243405L19.2086 -0.243405Z" id="Group" fill="#C71717" fill-opacity="0.942" fill-rule="evenodd" stroke="none" clip-path="url(#clip_2)" transform="translate(35 24)" />
      <path d="M179.695 -0.243405C180.182 -0.243405 180.668 -0.243405 181.154 -0.243405C189.709 4.93922 195.545 12.3172 198.661 21.8906C195.601 21.4114 192.521 20.8438 189.421 20.1881C188.247 20.2945 187.761 20.9432 187.962 22.1339C191.757 22.3934 195.485 23.0421 199.147 24.0798C200.389 30.0556 200.632 36.0552 199.877 42.0789C199.649 43.9775 199.082 45.7613 198.175 47.43C195.343 44.1919 192.263 41.1921 188.935 38.4304C187.732 37.4095 186.435 37.1663 185.045 37.7007C189.555 40.8336 193.526 44.5632 196.959 48.8892C196.294 51.849 194.754 54.362 192.339 56.4294C189.046 59.2121 185.318 61.2392 181.154 62.5103C179.665 59.1011 178.125 55.696 176.535 52.2945C175.258 50.1269 173.717 48.1811 171.915 46.4571C171.373 47.052 171.292 47.7006 171.672 48.4029C175.432 52.7543 177.62 57.7003 178.236 63.2401C175.033 64.1381 171.791 64.6245 168.511 64.6988C163.283 54.4413 155.826 46.1715 146.141 39.8898C154.195 39.7531 162.137 38.7803 169.97 36.9711C179.682 33.9318 184.382 27.2834 184.072 17.026C183.791 10.9566 182.333 5.20014 179.695 -0.243405L179.695 -0.243405Z" id="Group" fill="#C71717" fill-opacity="0.941" fill-rule="evenodd" stroke="none" clip-path="url(#clip_2)" transform="translate(35 24)" />
      <path d="M179.695 -0.243405C180.182 -0.243405 180.668 -0.243405 181.154 -0.243405C189.709 4.93922 195.545 12.3172 198.661 21.8906C195.601 21.4114 192.521 20.8438 189.421 20.1881C188.247 20.2945 187.761 20.9432 187.962 22.1339C191.757 22.3934 195.485 23.0421 199.147 24.0798C200.389 30.0556 200.632 36.0552 199.877 42.0789C199.649 43.9775 199.082 45.7613 198.175 47.43C195.343 44.1919 192.263 41.1921 188.935 38.4304C187.732 37.4095 186.435 37.1663 185.045 37.7007C189.555 40.8336 193.526 44.5632 196.959 48.8892C196.294 51.849 194.754 54.362 192.339 56.4294C189.046 59.2121 185.318 61.2392 181.154 62.5103C179.665 59.1011 178.125 55.696 176.535 52.2945C175.258 50.1269 173.717 48.1811 171.915 46.4571C171.373 47.052 171.292 47.7006 171.672 48.4029C175.432 52.7543 177.62 57.7003 178.236 63.2401C175.033 64.1381 171.791 64.6245 168.511 64.6988C163.283 54.4413 155.826 46.1715 146.141 39.8898C154.195 39.7531 162.137 38.7803 169.97 36.9711C179.682 33.9318 184.382 27.2834 184.072 17.026C183.791 10.9566 182.333 5.20014 179.695 -0.243405L179.695 -0.243405Z" id="Group" fill="#C71717" fill-opacity="0.941" fill-rule="evenodd" stroke="none" clip-path="url(#clip_2)" transform="translate(35 24)" />
      <path d="M130.57 269.743C110.146 269.743 89.7212 269.743 69.2968 269.743C60.1234 269.136 50.8838 268.407 41.5781 267.554C22.3256 265.159 10.4114 254.538 5.83549 235.691C4.92388 231.679 4.27548 227.625 3.89031 223.53C3.76563 178.676 10.0874 134.733 22.8558 91.6994C26.33 79.0768 31.5171 67.2393 38.4172 56.1879C48.5537 43.2913 61.7646 35.589 78.0501 33.0811C92.6389 31.4596 107.228 31.4596 121.817 33.0811C146.275 37.4408 162.728 51.3048 171.175 74.6734C181.833 104.998 189.128 136.131 193.059 168.074C195.835 186.641 196.807 205.289 195.976 224.016C195.314 235.415 191.586 245.63 184.792 254.663C177.547 262.137 168.713 266.434 158.289 267.554C148.985 268.429 139.745 269.158 130.57 269.743L130.57 269.743ZM63.4612 62.0255C70.1428 62.2629 72.3312 65.5056 70.0261 71.7547C67.5135 74.4302 64.6769 74.8354 61.516 72.9708C57.8498 68.5649 58.4981 64.9165 63.4612 62.0255L63.4612 62.0255ZM133.488 62.0255C139.595 62.3728 141.783 65.4541 140.053 71.2682C137.537 74.3611 134.539 74.9288 131.056 72.9708C127.405 68.2887 128.215 64.6402 133.488 62.0255L133.488 62.0255ZM97.5024 86.835C112.392 86.4633 126.17 90.1118 138.837 97.7803C147.032 103.141 151.733 110.681 152.94 120.401C152.337 127.887 149.257 134.13 143.7 139.129C130.98 149.101 116.472 154.047 100.177 153.966C85.8522 153.892 72.6416 150.081 60.5441 142.535C53.9052 138.082 49.6093 132.001 47.6573 124.292C46.544 117.395 48.165 111.234 52.5202 105.807C61.1908 96.5632 71.8081 90.8069 84.3724 88.5376C88.7992 87.7855 93.1758 87.2178 97.5024 86.835L97.5024 86.835Z" id="Group" fill="#C71717" fill-opacity="0.991" fill-rule="evenodd" stroke="none" clip-path="url(#clip_2)" transform="translate(35 24)" />
      <path d="M130.57 269.743C110.146 269.743 89.7212 269.743 69.2968 269.743C60.1234 269.136 50.8838 268.407 41.5781 267.554C22.3256 265.159 10.4114 254.538 5.83549 235.691C4.92388 231.679 4.27548 227.625 3.89031 223.53C3.76563 178.676 10.0874 134.733 22.8558 91.6994C26.33 79.0768 31.5171 67.2393 38.4172 56.1879C48.5537 43.2913 61.7646 35.589 78.0501 33.0811C92.6389 31.4596 107.228 31.4596 121.817 33.0811C146.275 37.4408 162.728 51.3048 171.175 74.6734C181.833 104.998 189.128 136.131 193.059 168.074C195.835 186.641 196.807 205.289 195.976 224.016C195.314 235.415 191.586 245.63 184.792 254.663C177.547 262.137 168.713 266.434 158.289 267.554C148.985 268.429 139.745 269.158 130.57 269.743L130.57 269.743ZM63.4612 62.0255C70.1428 62.2629 72.3312 65.5056 70.0261 71.7547C67.5135 74.4302 64.6769 74.8354 61.516 72.9708C57.8498 68.5649 58.4981 64.9165 63.4612 62.0255L63.4612 62.0255ZM133.488 62.0255C139.595 62.3728 141.783 65.4541 140.053 71.2682C137.537 74.3611 134.539 74.9288 131.056 72.9708C127.405 68.2887 128.215 64.6402 133.488 62.0255L133.488 62.0255ZM97.5024 86.835C112.392 86.4633 126.17 90.1118 138.837 97.7803C147.032 103.141 151.733 110.681 152.94 120.401C152.337 127.887 149.257 134.13 143.7 139.129C130.98 149.101 116.472 154.047 100.177 153.966C85.8522 153.892 72.6416 150.081 60.5441 142.535C53.9052 138.082 49.6093 132.001 47.6573 124.292C46.544 117.395 48.165 111.234 52.5202 105.807C61.1908 96.5632 71.8081 90.8069 84.3724 88.5376C88.7992 87.7855 93.1758 87.2178 97.5024 86.835L97.5024 86.835Z" id="Group" fill="#C71717" fill-opacity="0.991" fill-rule="evenodd" stroke="none" clip-path="url(#clip_2)" transform="translate(35 24)" />
      <path d="M200.611 63.0001C208.369 73.4838 214.771 84.8348 219.819 97.052C222.143 102.515 222.954 108.19 222.25 114.078C219.643 122.722 213.888 126.208 204.987 124.537C198.52 121.108 194.873 115.676 194.046 108.241C193.345 101.402 193.669 94.5916 195.018 87.8094C196.605 79.4673 198.469 71.1974 200.611 63.0001L200.611 63.0001Z" id="Group" fill="#C71717" fill-opacity="0.964" fill-rule="evenodd" stroke="none" clip-path="url(#clip_2)" transform="translate(35 24)" />
      <path d="M200.611 63.0001C208.369 73.4838 214.771 84.8348 219.819 97.052C222.143 102.515 222.954 108.19 222.25 114.078C219.643 122.722 213.888 126.208 204.987 124.537C198.52 121.108 194.873 115.676 194.046 108.241C193.345 101.402 193.669 94.5916 195.018 87.8094C196.605 79.4673 198.469 71.1974 200.611 63.0001L200.611 63.0001Z" id="Group" fill="#C71717" fill-opacity="0.964" fill-rule="evenodd" stroke="none" clip-path="url(#clip_2)" transform="translate(35 24)" />
      <path d="M62.4926 109.216C70.0229 108.559 73.3456 111.964 72.4617 119.432C69.2979 125.026 65.0019 126.081 59.5749 122.594C55.9733 117.141 56.9459 112.682 62.4926 109.216L62.4926 109.216Z" id="Group" fill="#C71717" fill-opacity="0.926" fill-rule="evenodd" stroke="none" clip-path="url(#clip_2)" transform="translate(35 24)" />
      <path d="M62.4926 109.216C70.0229 108.559 73.3456 111.964 72.4617 119.432C69.2979 125.026 65.0019 126.081 59.5749 122.594C55.9733 117.141 56.9459 112.682 62.4926 109.216L62.4926 109.216Z" id="Group" fill="#C71717" fill-opacity="0.926" fill-rule="evenodd" stroke="none" clip-path="url(#clip_2)" transform="translate(35 24)" />
      <path d="M132.525 109.216C140.126 108.951 143.287 112.518 142.008 119.919C139.684 124.133 136.198 125.512 131.552 124.055C126.862 120.782 125.971 116.646 128.877 111.649C130.083 110.766 131.299 109.955 132.525 109.216L132.525 109.216Z" id="Group" fill="#C71717" fill-opacity="0.923" fill-rule="evenodd" stroke="none" clip-path="url(#clip_2)" transform="translate(35 24)" />
      <path d="M132.525 109.216C140.126 108.951 143.287 112.518 142.008 119.919C139.684 124.133 136.198 125.512 131.552 124.055C126.862 120.782 125.971 116.646 128.877 111.649C130.083 110.766 131.299 109.955 132.525 109.216L132.525 109.216Z" id="Group" fill="#C71717" fill-opacity="0.923" fill-rule="evenodd" stroke="none" clip-path="url(#clip_2)" transform="translate(35 24)" />
      <path d="M248.752 191.429C248.752 195.645 248.752 199.861 248.752 204.077C246.169 216.453 240.009 226.75 230.273 234.968C217.754 244.947 203.651 251.189 187.965 253.695C189.359 251.571 190.655 249.382 191.855 247.129C207.649 243.491 221.022 235.788 231.975 224.022C244.023 209.261 246.292 193.046 238.783 175.376C236.446 170.051 233.852 164.863 231.002 159.809C224.313 149.511 217.991 138.971 212.037 128.189C211.712 127.703 211.712 127.216 212.037 126.73C213.171 126.243 214.306 125.757 215.441 125.27C222.866 138.046 230.485 150.694 238.297 163.214C243.292 172.132 246.778 181.537 248.752 191.429L248.752 191.429Z" id="Group" fill="#C71717" fill-opacity="0.889" fill-rule="evenodd" stroke="none" clip-path="url(#clip_2)" transform="translate(35 24)" />
      <path d="M248.752 191.429C248.752 195.645 248.752 199.861 248.752 204.077C246.169 216.453 240.009 226.75 230.273 234.968C217.754 244.947 203.651 251.189 187.965 253.695C189.359 251.571 190.655 249.382 191.855 247.129C207.649 243.491 221.022 235.788 231.975 224.022C244.023 209.261 246.292 193.046 238.783 175.376C236.446 170.051 233.852 164.863 231.002 159.809C224.313 149.511 217.991 138.971 212.037 128.189C211.712 127.703 211.712 127.216 212.037 126.73C213.171 126.243 214.306 125.757 215.441 125.27C222.866 138.046 230.485 150.694 238.297 163.214C243.292 172.132 246.778 181.537 248.752 191.429L248.752 191.429Z" id="Group" fill="#C71717" fill-opacity="0.889" fill-rule="evenodd" stroke="none" clip-path="url(#clip_2)" transform="translate(35 24)" />
    </g>
    <g id="animal" clip-path="url(#clip_1)">
      <path d="M249 0L249 0L249 270L0 270L0 0L249 0Z" id="animal" fill="none" stroke="none" transform="translate(35 24)" />
      <path d="M19.2086 -0.243405C19.5328 -0.243405 19.857 -0.243405 20.1812 -0.243405C16.145 7.82915 15.0915 16.2612 17.0203 25.0527C19.129 31.3777 23.4247 35.3506 29.9071 36.9711C37.7368 38.8086 45.6795 39.7816 53.7352 39.8898C44.051 46.1715 36.5944 54.4413 31.3661 64.6988C27.941 64.5924 24.5369 64.1871 21.1538 63.4831C22.1919 57.8393 24.5423 52.8127 28.2051 48.4029C28.5847 47.7006 28.5037 47.052 27.962 46.4571C26.1591 48.1811 24.6192 50.1269 23.3422 52.2945C21.794 55.715 20.2541 59.1202 18.7223 62.5103C11.5363 60.423 6.18697 56.1255 2.67449 49.6191C6.01492 44.899 10.0674 40.9261 14.8319 37.7007C14.2372 37.1588 13.5887 37.0778 12.8867 37.4575C8.62697 40.1778 4.89872 43.5021 1.70189 47.43C0.844852 45.6642 0.196456 43.8806 -0.243297 42.0789C-0.243297 37.5386 -0.243297 32.9982 -0.243297 28.4579C0.230839 27.0903 0.55504 25.631 0.729298 24.0798C4.39109 23.0553 8.11936 22.4066 11.9142 22.1339C12.0858 21.0954 11.6806 20.4468 10.6984 20.1881C7.67214 20.7447 4.67326 21.3934 1.70189 22.1339C4.2772 12.1143 10.1128 4.6552 19.2086 -0.243405L19.2086 -0.243405Z" id="Group" fill="#C71717" fill-opacity="0.942" fill-rule="evenodd" stroke="none" clip-path="url(#clip_2)" transform="translate(35 24)" />
      <path d="M19.2086 -0.243405C19.5328 -0.243405 19.857 -0.243405 20.1812 -0.243405C16.145 7.82915 15.0915 16.2612 17.0203 25.0527C19.129 31.3777 23.4247 35.3506 29.9071 36.9711C37.7368 38.8086 45.6795 39.7816 53.7352 39.8898C44.051 46.1715 36.5944 54.4413 31.3661 64.6988C27.941 64.5924 24.5369 64.1871 21.1538 63.4831C22.1919 57.8393 24.5423 52.8127 28.2051 48.4029C28.5847 47.7006 28.5037 47.052 27.962 46.4571C26.1591 48.1811 24.6192 50.1269 23.3422 52.2945C21.794 55.715 20.2541 59.1202 18.7223 62.5103C11.5363 60.423 6.18697 56.1255 2.67449 49.6191C6.01492 44.899 10.0674 40.9261 14.8319 37.7007C14.2372 37.1588 13.5887 37.0778 12.8867 37.4575C8.62697 40.1778 4.89872 43.5021 1.70189 47.43C0.844852 45.6642 0.196456 43.8806 -0.243297 42.0789C-0.243297 37.5386 -0.243297 32.9982 -0.243297 28.4579C0.230839 27.0903 0.55504 25.631 0.729298 24.0798C4.39109 23.0553 8.11936 22.4066 11.9142 22.1339C12.0858 21.0954 11.6806 20.4468 10.6984 20.1881C7.67214 20.7447 4.67326 21.3934 1.70189 22.1339C4.2772 12.1143 10.1128 4.6552 19.2086 -0.243405L19.2086 -0.243405Z" id="Group" fill="#C71717" fill-opacity="0.942" fill-rule="evenodd" stroke="none" clip-path="url(#clip_2)" transform="translate(35 24)" />
      <path d="M179.695 -0.243405C180.182 -0.243405 180.668 -0.243405 181.154 -0.243405C189.709 4.93922 195.545 12.3172 198.661 21.8906C195.601 21.4114 192.521 20.8438 189.421 20.1881C188.247 20.2945 187.761 20.9432 187.962 22.1339C191.757 22.3934 195.485 23.0421 199.147 24.0798C200.389 30.0556 200.632 36.0552 199.877 42.0789C199.649 43.9775 199.082 45.7613 198.175 47.43C195.343 44.1919 192.263 41.1921 188.935 38.4304C187.732 37.4095 186.435 37.1663 185.045 37.7007C189.555 40.8336 193.526 44.5632 196.959 48.8892C196.294 51.849 194.754 54.362 192.339 56.4294C189.046 59.2121 185.318 61.2392 181.154 62.5103C179.665 59.1011 178.125 55.696 176.535 52.2945C175.258 50.1269 173.717 48.1811 171.915 46.4571C171.373 47.052 171.292 47.7006 171.672 48.4029C175.432 52.7543 177.62 57.7003 178.236 63.2401C175.033 64.1381 171.791 64.6245 168.511 64.6988C163.283 54.4413 155.826 46.1715 146.141 39.8898C154.195 39.7531 162.137 38.7803 169.97 36.9711C179.682 33.9318 184.382 27.2834 184.072 17.026C183.791 10.9566 182.333 5.20014 179.695 -0.243405L179.695 -0.243405Z" id="Group" fill="#C71717" fill-opacity="0.941" fill-rule="evenodd" stroke="none" clip-path="url(#clip_2)" transform="translate(35 24)" />
      <path d="M179.695 -0.243405C180.182 -0.243405 180.668 -0.243405 181.154 -0.243405C189.709 4.93922 195.545 12.3172 198.661 21.8906C195.601 21.4114 192.521 20.8438 189.421 20.1881C188.247 20.2945 187.761 20.9432 187.962 22.1339C191.757 22.3934 195.485 23.0421 199.147 24.0798C200.389 30.0556 200.632 36.0552 199.877 42.0789C199.649 43.9775 199.082 45.7613 198.175 47.43C195.343 44.1919 192.263 41.1921 188.935 38.4304C187.732 37.4095 186.435 37.1663 185.045 37.7007C189.555 40.8336 193.526 44.5632 196.959 48.8892C196.294 51.849 194.754 54.362 192.339 56.4294C189.046 59.2121 185.318 61.2392 181.154 62.5103C179.665 59.1011 178.125 55.696 176.535 52.2945C175.258 50.1269 173.717 48.1811 171.915 46.4571C171.373 47.052 171.292 47.7006 171.672 48.4029C175.432 52.7543 177.62 57.7003 178.236 63.2401C175.033 64.1381 171.791 64.6245 168.511 64.6988C163.283 54.4413 155.826 46.1715 146.141 39.8898C154.195 39.7531 162.137 38.7803 169.97 36.9711C179.682 33.9318 184.382 27.2834 184.072 17.026C183.791 10.9566 182.333 5.20014 179.695 -0.243405L179.695 -0.243405Z" id="Group" fill="#C71717" fill-opacity="0.941" fill-rule="evenodd" stroke="none" clip-path="url(#clip_2)" transform="translate(35 24)" />
      <path d="M130.57 269.743C110.146 269.743 89.7212 269.743 69.2968 269.743C60.1234 269.136 50.8838 268.407 41.5781 267.554C22.3256 265.159 10.4114 254.538 5.83549 235.691C4.92388 231.679 4.27548 227.625 3.89031 223.53C3.76563 178.676 10.0874 134.733 22.8558 91.6994C26.33 79.0768 31.5171 67.2393 38.4172 56.1879C48.5537 43.2913 61.7646 35.589 78.0501 33.0811C92.6389 31.4596 107.228 31.4596 121.817 33.0811C146.275 37.4408 162.728 51.3048 171.175 74.6734C181.833 104.998 189.128 136.131 193.059 168.074C195.835 186.641 196.807 205.289 195.976 224.016C195.314 235.415 191.586 245.63 184.792 254.663C177.547 262.137 168.713 266.434 158.289 267.554C148.985 268.429 139.745 269.158 130.57 269.743L130.57 269.743ZM63.4612 62.0255C70.1428 62.2629 72.3312 65.5056 70.0261 71.7547C67.5135 74.4302 64.6769 74.8354 61.516 72.9708C57.8498 68.5649 58.4981 64.9165 63.4612 62.0255L63.4612 62.0255ZM133.488 62.0255C139.595 62.3728 141.783 65.4541 140.053 71.2682C137.537 74.3611 134.539 74.9288 131.056 72.9708C127.405 68.2887 128.215 64.6402 133.488 62.0255L133.488 62.0255ZM97.5024 86.835C112.392 86.4633 126.17 90.1118 138.837 97.7803C147.032 103.141 151.733 110.681 152.94 120.401C152.337 127.887 149.257 134.13 143.7 139.129C130.98 149.101 116.472 154.047 100.177 153.966C85.8522 153.892 72.6416 150.081 60.5441 142.535C53.9052 138.082 49.6093 132.001 47.6573 124.292C46.544 117.395 48.165 111.234 52.5202 105.807C61.1908 96.5632 71.8081 90.8069 84.3724 88.5376C88.7992 87.7855 93.1758 87.2178 97.5024 86.835L97.5024 86.835Z" id="Group" fill="#C71717" fill-opacity="0.991" fill-rule="evenodd" stroke="none" clip-path="url(#clip_2)" transform="translate(35 24)" />
      <path d="M130.57 269.743C110.146 269.743 89.7212 269.743 69.2968 269.743C60.1234 269.136 50.8838 268.407 41.5781 267.554C22.3256 265.159 10.4114 254.538 5.83549 235.691C4.92388 231.679 4.27548 227.625 3.89031 223.53C3.76563 178.676 10.0874 134.733 22.8558 91.6994C26.33 79.0768 31.5171 67.2393 38.4172 56.1879C48.5537 43.2913 61.7646 35.589 78.0501 33.0811C92.6389 31.4596 107.228 31.4596 121.817 33.0811C146.275 37.4408 162.728 51.3048 171.175 74.6734C181.833 104.998 189.128 136.131 193.059 168.074C195.835 186.641 196.807 205.289 195.976 224.016C195.314 235.415 191.586 245.63 184.792 254.663C177.547 262.137 168.713 266.434 158.289 267.554C148.985 268.429 139.745 269.158 130.57 269.743L130.57 269.743ZM63.4612 62.0255C70.1428 62.2629 72.3312 65.5056 70.0261 71.7547C67.5135 74.4302 64.6769 74.8354 61.516 72.9708C57.8498 68.5649 58.4981 64.9165 63.4612 62.0255L63.4612 62.0255ZM133.488 62.0255C139.595 62.3728 141.783 65.4541 140.053 71.2682C137.537 74.3611 134.539 74.9288 131.056 72.9708C127.405 68.2887 128.215 64.6402 133.488 62.0255L133.488 62.0255ZM97.5024 86.835C112.392 86.4633 126.17 90.1118 138.837 97.7803C147.032 103.141 151.733 110.681 152.94 120.401C152.337 127.887 149.257 134.13 143.7 139.129C130.98 149.101 116.472 154.047 100.177 153.966C85.8522 153.892 72.6416 150.081 60.5441 142.535C53.9052 138.082 49.6093 132.001 47.6573 124.292C46.544 117.395 48.165 111.234 52.5202 105.807C61.1908 96.5632 71.8081 90.8069 84.3724 88.5376C88.7992 87.7855 93.1758 87.2178 97.5024 86.835L97.5024 86.835Z" id="Group" fill="#C71717" fill-opacity="0.991" fill-rule="evenodd" stroke="none" clip-path="url(#clip_2)" transform="translate(35 24)" />
      <path d="M200.611 63.0001C208.369 73.4838 214.771 84.8348 219.819 97.052C222.143 102.515 222.954 108.19 222.25 114.078C219.643 122.722 213.888 126.208 204.987 124.537C198.52 121.108 194.873 115.676 194.046 108.241C193.345 101.402 193.669 94.5916 195.018 87.8094C196.605 79.4673 198.469 71.1974 200.611 63.0001L200.611 63.0001Z" id="Group" fill="#C71717" fill-opacity="0.964" fill-rule="evenodd" stroke="none" clip-path="url(#clip_2)" transform="translate(35 24)" />
      <path d="M200.611 63.0001C208.369 73.4838 214.771 84.8348 219.819 97.052C222.143 102.515 222.954 108.19 222.25 114.078C219.643 122.722 213.888 126.208 204.987 124.537C198.52 121.108 194.873 115.676 194.046 108.241C193.345 101.402 193.669 94.5916 195.018 87.8094C196.605 79.4673 198.469 71.1974 200.611 63.0001L200.611 63.0001Z" id="Group" fill="#C71717" fill-opacity="0.964" fill-rule="evenodd" stroke="none" clip-path="url(#clip_2)" transform="translate(35 24)" />
      <path d="M62.4926 109.216C70.0229 108.559 73.3456 111.964 72.4617 119.432C69.2979 125.026 65.0019 126.081 59.5749 122.594C55.9733 117.141 56.9459 112.682 62.4926 109.216L62.4926 109.216Z" id="Group" fill="#C71717" fill-opacity="0.926" fill-rule="evenodd" stroke="none" clip-path="url(#clip_2)" transform="translate(35 24)" />
      <path d="M62.4926 109.216C70.0229 108.559 73.3456 111.964 72.4617 119.432C69.2979 125.026 65.0019 126.081 59.5749 122.594C55.9733 117.141 56.9459 112.682 62.4926 109.216L62.4926 109.216Z" id="Group" fill="#C71717" fill-opacity="0.926" fill-rule="evenodd" stroke="none" clip-path="url(#clip_2)" transform="translate(35 24)" />
      <path d="M132.525 109.216C140.126 108.951 143.287 112.518 142.008 119.919C139.684 124.133 136.198 125.512 131.552 124.055C126.862 120.782 125.971 116.646 128.877 111.649C130.083 110.766 131.299 109.955 132.525 109.216L132.525 109.216Z" id="Group" fill="#C71717" fill-opacity="0.923" fill-rule="evenodd" stroke="none" clip-path="url(#clip_2)" transform="translate(35 24)" />
      <path d="M132.525 109.216C140.126 108.951 143.287 112.518 142.008 119.919C139.684 124.133 136.198 125.512 131.552 124.055C126.862 120.782 125.971 116.646 128.877 111.649C130.083 110.766 131.299 109.955 132.525 109.216L132.525 109.216Z" id="Group" fill="#C71717" fill-opacity="0.923" fill-rule="evenodd" stroke="none" clip-path="url(#clip_2)" transform="translate(35 24)" />
      <path d="M248.752 191.429C248.752 195.645 248.752 199.861 248.752 204.077C246.169 216.453 240.009 226.75 230.273 234.968C217.754 244.947 203.651 251.189 187.965 253.695C189.359 251.571 190.655 249.382 191.855 247.129C207.649 243.491 221.022 235.788 231.975 224.022C244.023 209.261 246.292 193.046 238.783 175.376C236.446 170.051 233.852 164.863 231.002 159.809C224.313 149.511 217.991 138.971 212.037 128.189C211.712 127.703 211.712 127.216 212.037 126.73C213.171 126.243 214.306 125.757 215.441 125.27C222.866 138.046 230.485 150.694 238.297 163.214C243.292 172.132 246.778 181.537 248.752 191.429L248.752 191.429Z" id="Group" fill="#C71717" fill-opacity="0.889" fill-rule="evenodd" stroke="none" clip-path="url(#clip_2)" transform="translate(35 24)" />
      <path d="M248.752 191.429C248.752 195.645 248.752 199.861 248.752 204.077C246.169 216.453 240.009 226.75 230.273 234.968C217.754 244.947 203.651 251.189 187.965 253.695C189.359 251.571 190.655 249.382 191.855 247.129C207.649 243.491 221.022 235.788 231.975 224.022C244.023 209.261 246.292 193.046 238.783 175.376C236.446 170.051 233.852 164.863 231.002 159.809C224.313 149.511 217.991 138.971 212.037 128.189C211.712 127.703 211.712 127.216 212.037 126.73C213.171 126.243 214.306 125.757 215.441 125.27C222.866 138.046 230.485 150.694 238.297 163.214C243.292 172.132 246.778 181.537 248.752 191.429L248.752 191.429Z" id="Group" fill="#C71717" fill-opacity="0.889" fill-rule="evenodd" stroke="none" clip-path="url(#clip_2)" transform="translate(35 24)" />
    </g>
  </g>
</svg>