<?xml version="1.0" encoding="utf-8"?>
<svg width="1280px" height="1280px" viewBox="0 0 1280 1280" version="1.1" xmlns:xlink="http://www.w3.org/1999/xlink" xmlns="http://www.w3.org/2000/svg">
  <defs>
    <path d="M1280 0L1280 0L1280 1280L0 1280L0 0L1280 0Z" id="path_1" />
    <clipPath id="clip_1">
      <use xlink:href="#path_1" clip-rule="evenodd" fill-rule="evenodd" />
    </clipPath>
  </defs>
  <g id="2bA7xJi13Uhj09GVR8CeBIttwIz">
    <path d="M1280 0L1280 0L1280 1280L0 1280L0 0L1280 0Z" id="2bA7xJi13Uhj09GVR8CeBIttwIz" fill="none" stroke="none" />
    <path d="M319.2 53.52C320.344 53.5189 321.488 53.5175 322.632 53.5158C325.752 53.512 328.872 53.5132 331.992 53.5152C335.392 53.5165 338.8 53.5132 342.232 53.5105C348.184 53.5063 354.152 53.5052 360.072 53.506C368.952 53.5072 377.752 53.5039 386.632 53.4997C403.352 53.492 420.072 53.4897 436.872 53.4892C449.832 53.4889 462.712 53.4872 475.672 53.4847C479.4 53.484 483.12 53.4832 486.872 53.4825C487.8 53.4824 488.728 53.4822 489.68 53.482C515.68 53.4771 541.76 53.4739 567.76 53.4743C568.744 53.4743 569.72 53.4743 570.736 53.4743C575.712 53.4744 580.656 53.4745 585.616 53.4746C587.096 53.4746 587.096 53.4746 588.608 53.4746C590.608 53.4746 592.6 53.4747 594.6 53.4747C625.64 53.4752 656.76 53.4692 688.2 53.4582C723.16 53.4459 758.04 53.439 793 53.4398C796.728 53.4399 800.456 53.4399 804.2 53.4399C805.576 53.44 805.576 53.44 806.984 53.44C821.704 53.44 836.504 53.4349 851.224 53.428C866.024 53.4212 880.904 53.4204 895.704 53.4257C904.504 53.4286 913.304 53.4272 922.104 53.4193C927.992 53.4145 933.864 53.4156 939.784 53.4213C943.136 53.4244 946.48 53.425 949.864 53.4185C1005.86 53.3161 1061.06 65.3385 1107.46 97.6585C1108 98.0289 1108.54 98.3985 1109.1 98.7785C1118.54 105.243 1127.34 112.059 1135.82 119.819C1137.5 121.339 1139.2 122.819 1140.91 124.291C1144.42 127.355 1147.75 130.587 1151.07 133.891C1151.67 134.488 1152.26 135.083 1152.88 135.699C1156.66 139.515 1160.19 143.387 1163.52 147.619C1165.28 149.867 1167.13 152.019 1168.99 154.187C1209.95 203.467 1226.91 266.186 1226.83 329.387C1226.83 331.219 1226.84 333.043 1226.84 334.874C1226.84 339.866 1226.84 344.875 1226.84 349.835C1226.84 354.674 1226.84 359.515 1226.85 364.395C1226.86 375.514 1226.86 386.634 1226.86 397.755C1226.86 406.315 1226.86 414.955 1226.86 423.515C1226.86 425.995 1226.86 428.475 1226.87 430.947C1226.87 431.563 1226.87 432.179 1226.87 432.811C1226.87 450.091 1226.87 467.451 1226.87 484.731C1226.87 485.383 1226.87 486.035 1226.87 486.707C1226.87 490.011 1226.87 493.315 1226.87 496.627C1226.87 497.611 1226.87 497.611 1226.87 498.619C1226.87 499.947 1226.87 501.275 1226.87 502.603C1226.87 523.243 1226.88 543.883 1226.89 564.523C1226.9 587.723 1226.91 611.003 1226.91 634.203C1226.91 636.683 1226.91 639.163 1226.91 641.643C1226.91 642.253 1226.91 642.867 1226.91 643.491C1226.91 653.251 1226.91 663.091 1226.92 672.851C1226.93 682.691 1226.93 692.531 1226.92 702.451C1226.92 707.779 1226.92 713.091 1226.93 718.451C1226.93 723.347 1226.93 728.211 1226.92 733.091C1226.92 734.843 1226.93 736.603 1226.93 738.355C1226.97 754.515 1226.22 770.675 1223.72 786.675C1223.58 787.563 1223.45 788.443 1223.31 789.355C1215.5 837.915 1194.11 884.555 1161.39 921.355C1160.48 922.379 1159.58 923.411 1158.69 924.451C1149.73 934.691 1139.97 944.611 1129.17 952.931C1128.37 953.586 1127.57 954.243 1126.74 954.915C1079.46 993.475 1017.94 1013.71 957.14 1012.91C955.852 1012.9 954.564 1012.89 953.276 1012.88C950.508 1012.85 947.732 1012.82 944.956 1012.79C938.052 1012.71 931.116 1012.65 924.236 1012.58C922.596 1012.57 920.948 1012.55 919.308 1012.54C906.348 1012.42 893.468 1012.33 880.508 1012.27C879.628 1012.26 878.748 1012.26 877.844 1012.25C868.804 1012.21 859.684 1012.17 850.644 1012.13C845.988 1012.11 841.364 1012.09 836.724 1012.07C835.796 1012.07 834.876 1012.06 833.916 1012.06C818.956 1011.99 803.996 1011.84 789.036 1011.66C773.596 1011.48 758.236 1011.39 742.796 1011.38C734.156 1011.37 725.516 1011.32 716.876 1011.17C666.316 1009.36 666.316 1009.36 624.076 1034.13C619.548 1038.42 614.316 1041.61 609.036 1044.93C607.436 1045.99 605.836 1047.06 604.236 1048.13C545.836 1087.09 487.436 1125.97 381.836 1196.13C380.756 1196.85 380.756 1196.85 379.652 1197.58C378.18 1198.57 376.708 1199.54 375.236 1200.53C370.876 1203.43 370.876 1203.43 366.516 1206.36C364.22 1207.91 361.9 1209.44 359.588 1210.96C359.029 1211.33 358.468 1211.71 357.892 1212.09C343.012 1222.01 328.132 1228.73 309.972 1225.13C295.252 1221.68 283.012 1213.93 274.852 1200.97C270.46 1193.57 268.236 1186.09 267.5 1177.53C267.434 1176.8 267.369 1176.06 267.301 1175.31C266.653 1167.49 266.603 1159.71 266.635 1151.87C266.635 1150.29 266.635 1148.7 266.634 1147.11C266.634 1142.86 266.643 1138.63 266.654 1134.39C266.664 1129.93 266.665 1125.43 266.667 1121.03C266.672 1112.63 266.685 1104.15 266.701 1095.75C266.719 1086.15 266.728 1076.55 266.736 1066.95C266.753 1047.19 266.781 1027.51 266.817 1007.75C266.195 1007.59 265.577 1007.43 264.937 1007.27C262.097 1006.54 259.249 1005.8 256.377 1005.07C255.401 1004.82 254.425 1004.56 253.417 1004.31C246.897 1002.62 240.457 1000.83 234.057 998.65C233.169 998.35 232.289 998.05 231.377 997.738C217.457 992.938 204.417 986.858 191.537 979.738C191.025 979.459 190.513 979.18 189.985 978.89C167.025 966.33 147.025 949.61 128.545 931.29C127.481 930.242 127.481 930.242 126.393 929.17C121.881 924.666 117.833 919.97 113.913 914.93C113.168 914.002 112.425 913.074 111.673 912.146C82.793 876.066 64.473 833.506 56.953 788.146C56.8322 787.419 56.7114 786.69 56.5866 785.946C54.2986 771.146 53.7146 756.346 53.7466 741.466C53.7442 739.586 53.7411 737.698 53.7373 735.818C53.7292 730.69 53.7308 725.578 53.7343 720.458C53.7368 715.482 53.7303 710.538 53.7248 705.498C53.7127 694.058 53.7112 682.618 53.7132 671.258C53.7147 662.458 53.7133 653.578 53.7099 644.778C53.7094 643.506 53.7089 642.234 53.7084 640.962C53.7077 639.042 53.707 637.13 53.7063 635.21C53.6995 617.37 53.696 599.61 53.6994 581.77C53.6995 581.1 53.6996 580.434 53.6998 579.738C53.7004 576.346 53.7011 572.946 53.7018 569.578C53.7019 568.903 53.7021 568.226 53.7022 567.538C53.7025 566.178 53.7028 564.81 53.703 563.45C53.7073 542.25 53.701 521.05 53.6862 499.85C53.6696 476.01 53.6611 452.09 53.6643 428.25C53.6646 425.698 53.6649 423.154 53.6652 420.602C53.6653 419.974 53.6653 419.346 53.6654 418.698C53.6663 409.258 53.661 399.818 53.6525 390.378C53.6428 379.658 53.6416 368.858 53.6515 358.138C53.6563 352.666 53.6572 347.178 53.6475 341.738C53.5775 299.098 53.5775 299.098 56.3515 281.578C56.4507 280.927 56.5507 280.274 56.6532 279.602C57.2003 276.058 57.8372 272.538 58.5491 269.042C58.7532 268.018 58.9579 266.994 59.1683 265.938C62.2563 250.738 66.5284 235.938 72.3683 221.618C72.6555 220.907 72.9435 220.194 73.2403 219.466C83.4003 194.586 97.2403 170.826 114.76 150.426C115.215 149.891 115.672 149.354 116.136 148.81C117.528 147.202 118.936 145.61 120.36 144.026C120.972 143.34 121.584 142.658 122.216 141.946C126.696 136.986 131.336 132.186 135.976 127.386C136.539 126.813 137.104 126.242 137.68 125.65C138.208 125.121 138.736 124.594 139.28 124.05C139.752 123.575 140.224 123.098 140.712 122.61C141.928 121.586 141.928 121.586 143.528 121.586L143.528 119.986C145.2 118.554 146.88 117.21 148.632 115.89C149.672 115.091 150.712 114.29 151.744 113.49C152.256 113.097 152.768 112.704 153.296 112.298C155.152 110.858 156.968 109.378 158.776 107.89C176.376 93.8098 196.936 81.8898 217.896 73.5698C218.928 73.1562 218.928 73.1562 219.976 72.7378C251.816 60.0978 285.176 53.3778 319.176 53.4578L319.2 53.52ZM283.28 387.12C282.782 387.544 282.28 387.968 281.768 388.408C273.448 395.968 267.288 408.728 266.328 419.928C265.895 435.368 268.224 448.888 278.808 460.968C280.024 462.232 281.256 463.48 282.504 464.72C283.035 465.278 283.568 465.832 284.112 466.408C287.664 469.888 291.512 472.304 295.872 474.568C296.367 474.829 296.864 475.089 297.376 475.358C305.936 479.534 314.976 480.27 324.336 480.222C325.456 480.224 326.584 480.228 327.704 480.232C330.776 480.241 333.848 480.236 336.904 480.228C340.248 480.222 343.6 480.23 346.984 480.236C352.848 480.244 358.744 480.244 364.584 480.238C373.304 480.229 382.024 480.233 390.744 480.241C406.344 480.253 421.864 480.252 437.464 480.245C451.064 480.239 464.744 480.238 478.344 480.241C479.248 480.241 480.152 480.241 481.08 480.241C484.752 480.242 488.416 480.243 492.12 480.243C526.52 480.251 560.92 480.244 595.32 480.231C625.88 480.22 656.44 480.221 687.32 480.232C721.64 480.245 756.04 480.25 790.52 480.243C794.184 480.242 797.848 480.241 801.48 480.241C802.384 480.24 803.28 480.24 804.216 480.24C817.816 480.237 831.416 480.241 845.096 480.247C860.616 480.254 876.056 480.252 891.576 480.239C900.216 480.232 908.936 480.231 917.576 480.24C923.368 480.246 929.176 480.242 934.936 480.232C938.232 480.226 941.528 480.224 944.856 480.233C947.864 480.241 950.864 480.237 953.896 480.225C955.472 480.222 957.056 480.23 958.632 480.239C967.672 480.182 976.712 478.959 984.792 474.719C985.322 474.447 985.848 474.174 986.4 473.895C999.68 466.703 1008.64 454.055 1012.96 439.735C1016.48 425.255 1014.07 410.775 1006.53 397.895C999.264 386.375 987.888 377.815 974.688 374.295C967.672 372.855 961.008 372.279 953.808 372.319C952.688 372.316 951.568 372.313 950.448 372.308C947.392 372.299 944.344 372.304 941.328 372.312C938 372.318 934.664 372.311 931.328 372.305C925.496 372.296 919.648 372.296 913.808 372.302C905.168 372.311 896.448 372.307 887.808 372.299C872.288 372.287 856.848 372.288 841.328 372.295C827.808 372.301 814.208 372.302 800.688 372.299C799.792 372.299 798.888 372.299 797.96 372.299C794.312 372.298 790.664 372.297 787 372.297C752.76 372.289 718.52 372.296 684.6 372.309C654.2 372.32 623.8 372.319 593.4 372.308C559.24 372.295 525.08 372.29 491 372.297C487.36 372.298 483.712 372.299 480.04 372.299C479.144 372.3 478.248 372.3 477.32 372.3C463.8 372.303 450.28 372.3 436.68 372.293C421.32 372.287 405.88 372.288 390.52 372.301C381.88 372.308 373.32 372.309 364.68 372.3C358.92 372.294 353.16 372.298 347.4 372.308C344.12 372.314 340.84 372.316 337.56 372.307C334.568 372.299 331.584 372.303 328.6 372.315C327.032 372.318 325.464 372.31 323.896 372.301C308.456 372.398 295.736 376.573 284.136 387.021L283.28 387.12ZM468.08 585.52C460.352 585.55 452.64 585.599 444.88 585.678C442.608 585.701 440.336 585.717 438.064 585.727C419.024 585.816 403.024 587.535 388.784 601.647C377.984 613.087 372.464 626.847 372.784 642.527C374.032 657.647 380.864 671.327 392.304 681.247C406.224 692.127 420.864 693.967 437.904 694.127C439.768 694.149 441.64 694.173 443.504 694.196C450.144 694.272 456.784 694.306 463.424 694.334C464.368 694.338 464.368 694.338 465.336 694.343C487.016 694.439 508.616 694.449 530.296 694.443C536.528 694.441 542.776 694.44 549.016 694.441C549.912 694.441 550.816 694.442 551.744 694.442C553.576 694.442 555.4 694.442 557.232 694.443C574.272 694.445 591.312 694.442 608.352 694.438C622.832 694.434 637.232 694.435 651.712 694.439C668.672 694.443 685.632 694.445 702.592 694.442C704.416 694.442 706.248 694.442 708.072 694.441C708.968 694.441 709.872 694.441 710.792 694.441C716.968 694.44 723.112 694.441 729.352 694.443C750.952 694.449 772.472 694.426 794.072 694.343C796.376 694.334 798.68 694.326 800.984 694.318C809.944 694.287 818.904 694.237 827.864 694.16C830.592 694.137 833.312 694.121 836.024 694.111C839.168 694.1 842.32 694.073 845.464 694.035C846.592 694.024 847.728 694.018 848.856 694.017C865.336 694.002 880.296 689.121 892.376 677.537C903.016 666.417 907.816 652.017 907.576 636.737C906.304 621.137 899.096 607.697 887.176 597.537C876.776 589.457 865.176 586.177 852.136 586.017C851.152 586.002 850.16 585.987 849.144 585.971C846.4 585.931 843.656 585.899 840.904 585.87C839.128 585.851 837.352 585.829 835.584 585.807C803.344 585.397 771.024 585.427 738.784 585.436C732.52 585.438 726.224 585.438 719.984 585.437C718.624 585.437 718.624 585.437 717.232 585.437C715.384 585.437 713.536 585.436 711.696 585.436C694.576 585.434 677.456 585.436 660.336 585.441C645.776 585.444 631.216 585.444 616.656 585.44C599.536 585.436 582.496 585.434 565.376 585.437C563.536 585.437 561.704 585.437 559.864 585.437C558.512 585.438 558.512 585.438 557.128 585.438C550.904 585.438 544.648 585.437 538.408 585.435C517.048 585.43 495.768 585.448 474.408 585.536C472.312 585.545 470.208 585.553 468.112 585.56L468.08 585.52Z" id="Shape" fill="#FFFFFF" fill-rule="evenodd" stroke="none" clip-path="url(#clip_1)" />
    <path d="M319.2 53.52C320.344 53.5189 321.488 53.5175 322.632 53.5158C325.752 53.512 328.872 53.5132 331.992 53.5152C335.392 53.5165 338.8 53.5132 342.232 53.5105C348.184 53.5063 354.152 53.5052 360.072 53.506C368.952 53.5072 377.752 53.5039 386.632 53.4997C403.352 53.492 420.072 53.4897 436.872 53.4892C449.832 53.4889 462.712 53.4872 475.672 53.4847C479.4 53.484 483.12 53.4832 486.872 53.4825C487.8 53.4824 488.728 53.4822 489.68 53.482C515.68 53.4771 541.76 53.4739 567.76 53.4743C568.744 53.4743 569.72 53.4743 570.736 53.4743C575.712 53.4744 580.656 53.4745 585.616 53.4746C587.096 53.4746 587.096 53.4746 588.608 53.4746C590.608 53.4746 592.6 53.4747 594.6 53.4747C625.64 53.4752 656.76 53.4692 688.2 53.4582C723.16 53.4459 758.04 53.439 793 53.4398C796.728 53.4399 800.456 53.4399 804.2 53.4399C805.576 53.44 805.576 53.44 806.984 53.44C821.704 53.44 836.504 53.4349 851.224 53.428C866.024 53.4212 880.904 53.4204 895.704 53.4257C904.504 53.4286 913.304 53.4272 922.104 53.4193C927.992 53.4145 933.864 53.4156 939.784 53.4213C943.136 53.4244 946.48 53.425 949.864 53.4185C1005.86 53.3161 1061.06 65.3385 1107.46 97.6585C1108 98.0289 1108.54 98.3985 1109.1 98.7785C1118.54 105.243 1127.34 112.059 1135.82 119.819C1137.5 121.339 1139.2 122.819 1140.91 124.291C1144.42 127.355 1147.75 130.587 1151.07 133.891C1151.67 134.488 1152.26 135.083 1152.88 135.699C1156.66 139.515 1160.19 143.387 1163.52 147.619C1165.28 149.867 1167.13 152.019 1168.99 154.187C1209.95 203.467 1226.91 266.186 1226.83 329.387C1226.83 331.219 1226.84 333.043 1226.84 334.874C1226.84 339.866 1226.84 344.875 1226.84 349.835C1226.84 354.674 1226.84 359.515 1226.85 364.395C1226.86 375.514 1226.86 386.634 1226.86 397.755C1226.86 406.315 1226.86 414.955 1226.86 423.515C1226.86 425.995 1226.86 428.475 1226.87 430.947C1226.87 431.563 1226.87 432.179 1226.87 432.811C1226.87 450.091 1226.87 467.451 1226.87 484.731C1226.87 485.383 1226.87 486.035 1226.87 486.707C1226.87 490.011 1226.87 493.315 1226.87 496.627C1226.87 497.611 1226.87 497.611 1226.87 498.619C1226.87 499.947 1226.87 501.275 1226.87 502.603C1226.87 523.243 1226.88 543.883 1226.89 564.523C1226.9 587.723 1226.91 611.003 1226.91 634.203C1226.91 636.683 1226.91 639.163 1226.91 641.643C1226.91 642.253 1226.91 642.867 1226.91 643.491C1226.91 653.251 1226.91 663.091 1226.92 672.851C1226.93 682.691 1226.93 692.531 1226.92 702.451C1226.92 707.779 1226.92 713.091 1226.93 718.451C1226.93 723.347 1226.93 728.211 1226.92 733.091C1226.92 734.843 1226.93 736.603 1226.93 738.355C1226.97 754.515 1226.22 770.675 1223.72 786.675C1223.58 787.563 1223.45 788.443 1223.31 789.355C1215.5 837.915 1194.11 884.555 1161.39 921.355C1160.48 922.379 1159.58 923.411 1158.69 924.451C1149.73 934.691 1139.97 944.611 1129.17 952.931C1128.37 953.586 1127.57 954.243 1126.74 954.915C1079.46 993.475 1017.94 1013.71 957.14 1012.91C955.852 1012.9 954.564 1012.89 953.276 1012.88C950.508 1012.85 947.732 1012.82 944.956 1012.79C938.052 1012.71 931.116 1012.65 924.236 1012.58C922.596 1012.57 920.948 1012.55 919.308 1012.54C906.348 1012.42 893.468 1012.33 880.508 1012.27C879.628 1012.26 878.748 1012.26 877.844 1012.25C868.804 1012.21 859.684 1012.17 850.644 1012.13C845.988 1012.11 841.364 1012.09 836.724 1012.07C835.796 1012.07 834.876 1012.06 833.916 1012.06C818.956 1011.99 803.996 1011.84 789.036 1011.66C773.596 1011.48 758.236 1011.39 742.796 1011.38C734.156 1011.37 725.516 1011.32 716.876 1011.17C666.316 1009.36 666.316 1009.36 624.076 1034.13C619.548 1038.42 614.316 1041.61 609.036 1044.93C607.436 1045.99 605.836 1047.06 604.236 1048.13C545.836 1087.09 487.436 1125.97 381.836 1196.13C380.756 1196.85 380.756 1196.85 379.652 1197.58C378.18 1198.57 376.708 1199.54 375.236 1200.53C370.876 1203.43 370.876 1203.43 366.516 1206.36C364.22 1207.91 361.9 1209.44 359.588 1210.96C359.029 1211.33 358.468 1211.71 357.892 1212.09C343.012 1222.01 328.132 1228.73 309.972 1225.13C295.252 1221.68 283.012 1213.93 274.852 1200.97C270.46 1193.57 268.236 1186.09 267.5 1177.53C267.434 1176.8 267.369 1176.06 267.301 1175.31C266.653 1167.49 266.603 1159.71 266.635 1151.87C266.635 1150.29 266.635 1148.7 266.634 1147.11C266.634 1142.86 266.643 1138.63 266.654 1134.39C266.664 1129.93 266.665 1125.43 266.667 1121.03C266.672 1112.63 266.685 1104.15 266.701 1095.75C266.719 1086.15 266.728 1076.55 266.736 1066.95C266.753 1047.19 266.781 1027.51 266.817 1007.75C266.195 1007.59 265.577 1007.43 264.937 1007.27C262.097 1006.54 259.249 1005.8 256.377 1005.07C255.401 1004.82 254.425 1004.56 253.417 1004.31C246.897 1002.62 240.457 1000.83 234.057 998.65C233.169 998.35 232.289 998.05 231.377 997.738C217.457 992.938 204.417 986.858 191.537 979.738C191.025 979.459 190.513 979.18 189.985 978.89C167.025 966.33 147.025 949.61 128.545 931.29C127.481 930.242 127.481 930.242 126.393 929.17C121.881 924.666 117.833 919.97 113.913 914.93C113.168 914.002 112.425 913.074 111.673 912.146C82.793 876.066 64.473 833.506 56.953 788.146C56.8322 787.419 56.7114 786.69 56.5866 785.946C54.2986 771.146 53.7146 756.346 53.7466 741.466C53.7442 739.586 53.7411 737.698 53.7373 735.818C53.7292 730.69 53.7308 725.578 53.7343 720.458C53.7368 715.482 53.7303 710.538 53.7248 705.498C53.7127 694.058 53.7112 682.618 53.7132 671.258C53.7147 662.458 53.7133 653.578 53.7099 644.778C53.7094 643.506 53.7089 642.234 53.7084 640.962C53.7077 639.042 53.707 637.13 53.7063 635.21C53.6995 617.37 53.696 599.61 53.6994 581.77C53.6995 581.1 53.6996 580.434 53.6998 579.738C53.7004 576.346 53.7011 572.946 53.7018 569.578C53.7019 568.903 53.7021 568.226 53.7022 567.538C53.7025 566.178 53.7028 564.81 53.703 563.45C53.7073 542.25 53.701 521.05 53.6862 499.85C53.6696 476.01 53.6611 452.09 53.6643 428.25C53.6646 425.698 53.6649 423.154 53.6652 420.602C53.6653 419.974 53.6653 419.346 53.6654 418.698C53.6663 409.258 53.661 399.818 53.6525 390.378C53.6428 379.658 53.6416 368.858 53.6515 358.138C53.6563 352.666 53.6572 347.178 53.6475 341.738C53.5775 299.098 53.5775 299.098 56.3515 281.578C56.4507 280.927 56.5507 280.274 56.6532 279.602C57.2003 276.058 57.8372 272.538 58.5491 269.042C58.7532 268.018 58.9579 266.994 59.1683 265.938C62.2563 250.738 66.5284 235.938 72.3683 221.618C72.6555 220.907 72.9435 220.194 73.2403 219.466C83.4003 194.586 97.2403 170.826 114.76 150.426C115.215 149.891 115.672 149.354 116.136 148.81C117.528 147.202 118.936 145.61 120.36 144.026C120.972 143.34 121.584 142.658 122.216 141.946C126.696 136.986 131.336 132.186 135.976 127.386C136.539 126.813 137.104 126.242 137.68 125.65C138.208 125.121 138.736 124.594 139.28 124.05C139.752 123.575 140.224 123.098 140.712 122.61C141.928 121.586 141.928 121.586 143.528 121.586L143.528 119.986C145.2 118.554 146.88 117.21 148.632 115.89C149.672 115.091 150.712 114.29 151.744 113.49C152.256 113.097 152.768 112.704 153.296 112.298C155.152 110.858 156.968 109.378 158.776 107.89C176.376 93.8098 196.936 81.8898 217.896 73.5698C218.928 73.1562 218.928 73.1562 219.976 72.7378C251.816 60.0978 285.176 53.3778 319.176 53.4578L319.2 53.52ZM283.28 387.12C282.782 387.544 282.28 387.968 281.768 388.408C273.448 395.968 267.288 408.728 266.328 419.928C265.895 435.368 268.224 448.888 278.808 460.968C280.024 462.232 281.256 463.48 282.504 464.72C283.035 465.278 283.568 465.832 284.112 466.408C287.664 469.888 291.512 472.304 295.872 474.568C296.367 474.829 296.864 475.089 297.376 475.358C305.936 479.534 314.976 480.27 324.336 480.222C325.456 480.224 326.584 480.228 327.704 480.232C330.776 480.241 333.848 480.236 336.904 480.228C340.248 480.222 343.6 480.23 346.984 480.236C352.848 480.244 358.744 480.244 364.584 480.238C373.304 480.229 382.024 480.233 390.744 480.241C406.344 480.253 421.864 480.252 437.464 480.245C451.064 480.239 464.744 480.238 478.344 480.241C479.248 480.241 480.152 480.241 481.08 480.241C484.752 480.242 488.416 480.243 492.12 480.243C526.52 480.251 560.92 480.244 595.32 480.231C625.88 480.22 656.44 480.221 687.32 480.232C721.64 480.245 756.04 480.25 790.52 480.243C794.184 480.242 797.848 480.241 801.48 480.241C802.384 480.24 803.28 480.24 804.216 480.24C817.816 480.237 831.416 480.241 845.096 480.247C860.616 480.254 876.056 480.252 891.576 480.239C900.216 480.232 908.936 480.231 917.576 480.24C923.368 480.246 929.176 480.242 934.936 480.232C938.232 480.226 941.528 480.224 944.856 480.233C947.864 480.241 950.864 480.237 953.896 480.225C955.472 480.222 957.056 480.23 958.632 480.239C967.672 480.182 976.712 478.959 984.792 474.719C985.322 474.447 985.848 474.174 986.4 473.895C999.68 466.703 1008.64 454.055 1012.96 439.735C1016.48 425.255 1014.07 410.775 1006.53 397.895C999.264 386.375 987.888 377.815 974.688 374.295C967.672 372.855 961.008 372.279 953.808 372.319C952.688 372.316 951.568 372.313 950.448 372.308C947.392 372.299 944.344 372.304 941.328 372.312C938 372.318 934.664 372.311 931.328 372.305C925.496 372.296 919.648 372.296 913.808 372.302C905.168 372.311 896.448 372.307 887.808 372.299C872.288 372.287 856.848 372.288 841.328 372.295C827.808 372.301 814.208 372.302 800.688 372.299C799.792 372.299 798.888 372.299 797.96 372.299C794.312 372.298 790.664 372.297 787 372.297C752.76 372.289 718.52 372.296 684.6 372.309C654.2 372.32 623.8 372.319 593.4 372.308C559.24 372.295 525.08 372.29 491 372.297C487.36 372.298 483.712 372.299 480.04 372.299C479.144 372.3 478.248 372.3 477.32 372.3C463.8 372.303 450.28 372.3 436.68 372.293C421.32 372.287 405.88 372.288 390.52 372.301C381.88 372.308 373.32 372.309 364.68 372.3C358.92 372.294 353.16 372.298 347.4 372.308C344.12 372.314 340.84 372.316 337.56 372.307C334.568 372.299 331.584 372.303 328.6 372.315C327.032 372.318 325.464 372.31 323.896 372.301C308.456 372.398 295.736 376.573 284.136 387.021L283.28 387.12ZM468.08 585.52C460.352 585.55 452.64 585.599 444.88 585.678C442.608 585.701 440.336 585.717 438.064 585.727C419.024 585.816 403.024 587.535 388.784 601.647C377.984 613.087 372.464 626.847 372.784 642.527C374.032 657.647 380.864 671.327 392.304 681.247C406.224 692.127 420.864 693.967 437.904 694.127C439.768 694.149 441.64 694.173 443.504 694.196C450.144 694.272 456.784 694.306 463.424 694.334C464.368 694.338 464.368 694.338 465.336 694.343C487.016 694.439 508.616 694.449 530.296 694.443C536.528 694.441 542.776 694.44 549.016 694.441C549.912 694.441 550.816 694.442 551.744 694.442C553.576 694.442 555.4 694.442 557.232 694.443C574.272 694.445 591.312 694.442 608.352 694.438C622.832 694.434 637.232 694.435 651.712 694.439C668.672 694.443 685.632 694.445 702.592 694.442C704.416 694.442 706.248 694.442 708.072 694.441C708.968 694.441 709.872 694.441 710.792 694.441C716.968 694.44 723.112 694.441 729.352 694.443C750.952 694.449 772.472 694.426 794.072 694.343C796.376 694.334 798.68 694.326 800.984 694.318C809.944 694.287 818.904 694.237 827.864 694.16C830.592 694.137 833.312 694.121 836.024 694.111C839.168 694.1 842.32 694.073 845.464 694.035C846.592 694.024 847.728 694.018 848.856 694.017C865.336 694.002 880.296 689.121 892.376 677.537C903.016 666.417 907.816 652.017 907.576 636.737C906.304 621.137 899.096 607.697 887.176 597.537C876.776 589.457 865.176 586.177 852.136 586.017C851.152 586.002 850.16 585.987 849.144 585.971C846.4 585.931 843.656 585.899 840.904 585.87C839.128 585.851 837.352 585.829 835.584 585.807C803.344 585.397 771.024 585.427 738.784 585.436C732.52 585.438 726.224 585.438 719.984 585.437C718.624 585.437 718.624 585.437 717.232 585.437C715.384 585.437 713.536 585.436 711.696 585.436C694.576 585.434 677.456 585.436 660.336 585.441C645.776 585.444 631.216 585.444 616.656 585.44C599.536 585.436 582.496 585.434 565.376 585.437C563.536 585.437 561.704 585.437 559.864 585.437C558.512 585.438 558.512 585.438 557.128 585.438C550.904 585.438 544.648 585.437 538.408 585.435C517.048 585.43 495.768 585.448 474.408 585.536C472.312 585.545 470.208 585.553 468.112 585.56L468.08 585.52Z" id="Shape" fill="#FFFFFF" fill-rule="evenodd" stroke="none" clip-path="url(#clip_1)" />
  </g>
</svg>