<?xml version="1.0" encoding="utf-8"?>
<svg width="427.63525px" height="427.52283px" viewBox="0 0 427.63525 427.52283" version="1.1" xmlns:xlink="http://www.w3.org/1999/xlink" xmlns="http://www.w3.org/2000/svg">
  <path d="M201.635 0.0209579C287.803 -0.991444 353.637 34.6753 399.135 107.021C437.135 178.354 437.135 249.688 399.135 321.021C354.73 392.32 290.23 427.82 205.635 427.521C177.999 424.445 151.332 417.612 125.635 407.021C95.4651 412.955 65.2982 418.955 35.1352 425.021C12.3552 421.911 1.68845 408.911 3.13515 386.021C8.44135 357.684 12.6081 329.184 15.6352 300.521C14.3008 292.51 12.1342 284.677 9.13515 277.021C-10.9347 204.039 2.06535 137.706 48.1352 78.021C88.6371 31.186 139.804 5.18596 201.635 0.0209579L201.635 0.0209579ZM210.635 129.021C221.3 128.763 228.8 133.429 233.135 143.021C234.576 159.631 235.076 176.298 234.635 193.021C251.358 192.58 268.025 193.08 284.635 194.521C299.135 202.687 301.968 213.854 293.135 228.021C290.571 230.248 287.738 232.082 284.635 233.521C268.025 234.962 251.358 235.462 234.635 235.021C235.076 251.744 234.576 268.411 233.135 285.021C224.969 299.521 213.802 302.354 199.635 293.521C197.408 290.957 195.574 288.124 194.135 285.021C192.694 268.411 192.194 251.744 192.635 235.021C175.912 235.462 159.245 234.962 142.635 233.521C128.135 225.355 125.302 214.188 134.135 200.021C136.699 197.794 139.532 195.96 142.635 194.521C159.245 193.08 175.912 192.58 192.635 193.021C192.194 176.298 192.694 159.631 194.135 143.021C197.418 135.645 202.918 130.978 210.635 129.021L210.635 129.021Z" id="Group" fill="#FFFFFF" fill-opacity="0.995" fill-rule="evenodd" stroke="none" />
</svg>