<?xml version="1.0" encoding="UTF-8"?>
<!DOCTYPE svg PUBLIC "-//W3C//DTD SVG 1.1//EN" "http://www.w3.org/Graphics/SVG/1.1/DTD/svg11.dtd">
<svg xmlns="http://www.w3.org/2000/svg" version="1.1" width="512px" height="555px" style="shape-rendering:geometricPrecision; text-rendering:geometricPrecision; image-rendering:optimizeQuality; fill-rule:evenodd; clip-rule:evenodd" xmlns:xlink="http://www.w3.org/1999/xlink">
<g><path style="opacity:0.942" fill="#000000" d="M 39.5,-0.5 C 40.1667,-0.5 40.8333,-0.5 41.5,-0.5C 33.2003,16.0944 31.0337,33.4278 35,51.5C 39.3364,64.5021 48.1697,72.6688 61.5,76C 77.6003,79.7776 93.9336,81.7776 110.5,82C 90.5847,94.9129 75.2514,111.913 64.5,133C 57.4568,132.78 50.4568,131.947 43.5,130.5C 45.6345,118.898 50.4679,108.565 58,99.5C 58.7805,98.0563 58.6139,96.723 57.5,95.5C 53.7928,99.0441 50.6261,103.044 48,107.5C 44.8165,114.531 41.6499,121.531 38.5,128.5C 23.7229,124.209 12.7229,115.375 5.5,102C 12.3691,92.2971 20.7025,84.1304 30.5,77.5C 29.277,76.3861 27.9437,76.2195 26.5,77C 17.7404,82.5921 10.0738,89.4254 3.5,97.5C 1.73762,93.8703 0.404289,90.2036 -0.5,86.5C -0.5,77.1667 -0.5,67.8333 -0.5,58.5C 0.474989,55.6888 1.14166,52.6888 1.5,49.5C 9.02995,47.3941 16.6966,46.0607 24.5,45.5C 24.853,43.3652 24.0197,42.0319 22,41.5C 15.7769,42.6444 9.61019,43.9777 3.5,45.5C 8.79574,24.9032 20.7957,9.56986 39.5,-0.5 Z"/></g>
<g><path style="opacity:0.941" fill="#000000" d="M 369.5,-0.5 C 370.5,-0.5 371.5,-0.5 372.5,-0.5C 390.092,10.1537 402.092,25.3203 408.5,45C 402.207,44.0147 395.873,42.848 389.5,41.5C 387.085,41.7189 386.085,43.0523 386.5,45.5C 394.302,46.0336 401.969,47.3669 409.5,49.5C 412.053,61.7842 412.553,74.1175 411,86.5C 410.532,90.4029 409.366,94.0696 407.5,97.5C 401.677,90.8438 395.343,84.6771 388.5,79C 386.026,76.9015 383.359,76.4015 380.5,77.5C 389.775,83.9402 397.942,91.6068 405,100.5C 403.633,106.584 400.466,111.75 395.5,116C 388.729,121.72 381.063,125.887 372.5,128.5C 369.438,121.492 366.271,114.492 363,107.5C 360.374,103.044 357.207,99.0441 353.5,95.5C 352.386,96.723 352.219,98.0563 353,99.5C 360.732,108.445 365.232,118.612 366.5,130C 359.912,131.846 353.245,132.846 346.5,133C 335.749,111.913 320.415,94.9129 300.5,82C 317.061,81.7191 333.394,79.7191 349.5,76C 369.471,69.7524 379.138,56.0857 378.5,35C 377.923,22.5234 374.923,10.6901 369.5,-0.5 Z"/></g>
<g><path style="opacity:0.991" fill="#000000" d="M 268.5,554.5 C 226.5,554.5 184.5,554.5 142.5,554.5C 123.636,553.252 104.636,551.752 85.5,550C 45.9098,545.075 21.4098,523.242 12,484.5C 10.1254,476.252 8.79205,467.919 8,459.5C 7.74362,367.295 20.7436,276.962 47,188.5C 54.1444,162.552 64.811,138.218 79,115.5C 99.8444,88.9888 127.011,73.1554 160.5,68C 190.5,64.6667 220.5,64.6667 250.5,68C 300.795,76.9622 334.629,105.462 352,153.5C 373.917,215.837 388.917,279.837 397,345.5C 402.709,383.669 404.709,422.002 403,460.5C 401.638,483.931 393.971,504.931 380,523.5C 365.103,538.864 346.937,547.697 325.5,550C 306.368,551.797 287.368,553.297 268.5,554.5 Z M 130.5,127.5 C 144.24,127.988 148.74,134.654 144,147.5C 138.833,153 133,153.833 126.5,150C 118.961,140.943 120.294,133.443 130.5,127.5 Z M 274.5,127.5 C 287.059,128.214 291.559,134.548 288,146.5C 282.827,152.858 276.661,154.025 269.5,150C 261.991,140.375 263.658,132.875 274.5,127.5 Z M 200.5,178.5 C 231.118,177.736 259.451,185.236 285.5,201C 302.352,212.019 312.019,227.519 314.5,247.5C 313.26,262.89 306.927,275.724 295.5,286C 269.342,306.498 239.509,316.665 206,316.5C 176.543,316.347 149.377,308.513 124.5,293C 110.848,283.847 102.014,271.347 98,255.5C 95.7107,241.322 99.0441,228.656 108,217.5C 125.83,198.498 147.663,186.665 173.5,182C 182.603,180.454 191.603,179.287 200.5,178.5 Z"/></g>
<g><path style="opacity:0.964" fill="#000000" d="M 412.5,129.5 C 428.453,151.051 441.619,174.385 452,199.5C 456.779,210.729 458.446,222.396 457,234.5C 451.636,252.268 439.803,259.435 421.5,256C 408.202,248.951 400.702,237.785 399,222.5C 397.559,208.442 398.226,194.442 401,180.5C 404.263,163.351 408.096,146.351 412.5,129.5 Z"/></g>
<g><path style="opacity:0.926" fill="#000000" d="M 128.5,224.5 C 143.985,223.15 150.818,230.15 149,245.5C 142.494,257.001 133.66,259.168 122.5,252C 115.094,240.791 117.094,231.625 128.5,224.5 Z"/></g>
<g><path style="opacity:0.923" fill="#000000" d="M 272.5,224.5 C 288.129,223.954 294.629,231.287 292,246.5C 287.22,255.161 280.053,257.995 270.5,255C 260.857,248.272 259.024,239.772 265,229.5C 267.479,227.686 269.979,226.019 272.5,224.5 Z"/></g>
<g><path style="opacity:0.889" fill="#000000" d="M 511.5,393.5 C 511.5,402.167 511.5,410.833 511.5,419.5C 506.188,444.94 493.521,466.107 473.5,483C 447.756,503.513 418.756,516.347 386.5,521.5C 389.366,517.13 392.032,512.63 394.5,508C 426.977,500.521 454.477,484.687 477,460.5C 501.775,430.157 506.442,396.824 491,360.5C 486.194,349.554 480.861,338.888 475,328.5C 461.245,307.331 448.245,285.664 436,263.5C 435.333,262.5 435.333,261.5 436,260.5C 438.333,259.5 440.667,258.5 443,257.5C 458.269,283.762 473.936,309.762 490,335.5C 500.272,353.832 507.439,373.165 511.5,393.5 Z"/></g>
</svg>
